<svg width="182" height="36" viewBox="0 0 182 36" fill="none" xmlns="http://www.w3.org/2000/svg">
<path d="M50.04 25C49.9067 25 49.7933 24.9533 49.7 24.86C49.6067 24.7667 49.56 24.6533 49.56 24.52V11.5C49.56 11.3533 49.6 11.2333 49.68 11.14C49.7733 11.0467 49.8933 11 50.04 11H55.84C57.4 11 58.5667 11.3467 59.34 12.04C60.1133 12.72 60.5 13.6533 60.5 14.84C60.5 15.5333 60.3267 16.1267 59.98 16.62C59.6467 17.1 59.2533 17.4467 58.8 17.66C59.36 17.9133 59.8333 18.3267 60.22 18.9C60.6067 19.4733 60.8 20.1267 60.8 20.86C60.8 22.1 60.38 23.1 59.54 23.86C58.7 24.62 57.5267 25 56.02 25H50.04ZM55.48 16.74C56.16 16.74 56.68 16.5733 57.04 16.24C57.4133 15.9067 57.6 15.46 57.6 14.9C57.6 14.34 57.42 13.9067 57.06 13.6C56.7 13.2933 56.1733 13.14 55.48 13.14H52.38V16.74H55.48ZM55.68 22.86C56.3733 22.86 56.9133 22.6733 57.3 22.3C57.6867 21.9133 57.88 21.4267 57.88 20.84C57.88 20.2533 57.68 19.7733 57.28 19.4C56.8933 19.0133 56.36 18.82 55.68 18.82H52.38V22.86H55.68ZM72.5505 14.6C72.6705 14.6 72.7771 14.6467 72.8705 14.74C72.9638 14.82 73.0105 14.92 73.0105 15.04V24.52C73.0105 24.6533 72.9638 24.7667 72.8705 24.86C72.7905 24.9533 72.6771 25 72.5305 25H70.8305C70.6971 25 70.5838 24.9533 70.4905 24.86C70.3971 24.7667 70.3505 24.6533 70.3505 24.52V18.14L65.6105 24.68C65.4638 24.8933 65.2771 25 65.0505 25H63.5105C63.3771 25 63.2638 24.96 63.1705 24.88C63.0905 24.7867 63.0505 24.6733 63.0505 24.54V15.08C63.0505 14.9333 63.0971 14.82 63.1905 14.74C63.2838 14.6467 63.3971 14.6 63.5305 14.6H65.2305C65.3638 14.6 65.4771 14.6467 65.5705 14.74C65.6638 14.8333 65.7105 14.9467 65.7105 15.08V21.46L70.4505 14.92C70.6105 14.7067 70.7971 14.6 71.0105 14.6H72.5505ZM75.1309 27.2C74.9976 27.2 74.8843 27.1533 74.7909 27.06C74.6976 26.98 74.6509 26.8667 74.6509 26.72V23.34C74.6509 23.1933 74.6976 23.08 74.7909 23C74.8843 22.9067 74.9976 22.86 75.1309 22.86H75.2909C75.8109 22.86 76.1909 22.4467 76.4309 21.62C76.6709 20.7933 76.7909 19.5133 76.7909 17.78V15.08C76.7909 14.9333 76.8376 14.82 76.9309 14.74C77.0243 14.6467 77.1376 14.6 77.2709 14.6H84.4309C84.5776 14.6 84.6909 14.6467 84.7709 14.74C84.8643 14.82 84.9109 14.9333 84.9109 15.08V22.84H85.8109C85.9576 22.84 86.0709 22.8867 86.1509 22.98C86.2443 23.06 86.2909 23.1733 86.2909 23.32V26.72C86.2909 26.8667 86.2443 26.98 86.1509 27.06C86.0709 27.1533 85.9576 27.2 85.8109 27.2H84.1109C83.9776 27.2 83.8643 27.1533 83.7709 27.06C83.6776 26.98 83.6309 26.8667 83.6309 26.72V25H77.3109V26.72C77.3109 26.8667 77.2643 26.98 77.1709 27.06C77.0909 27.1533 76.9776 27.2 76.8309 27.2H75.1309ZM82.2509 22.84V16.74H79.3309V18.08C79.3309 20.3733 79.0243 21.9667 78.4109 22.86L82.2509 22.84ZM92.6091 25.2C91.1157 25.2 89.9291 24.7733 89.0491 23.92C88.1824 23.0667 87.7224 21.8533 87.6691 20.28L87.6491 19.78C87.6491 18.1133 88.0824 16.8 88.9491 15.84C89.8291 14.88 91.0424 14.4 92.5891 14.4C94.1757 14.4 95.3957 14.88 96.2491 15.84C97.1157 16.8 97.5491 18.08 97.5491 19.68V20.1C97.5491 20.2333 97.5024 20.3467 97.4091 20.44C97.3157 20.5333 97.1957 20.58 97.0491 20.58H90.4091V20.74C90.4357 21.4867 90.6357 22.1067 91.0091 22.6C91.3957 23.08 91.9224 23.32 92.5891 23.32C93.3491 23.32 93.9691 23.0133 94.4491 22.4C94.5691 22.2533 94.6624 22.1667 94.7291 22.14C94.7957 22.1 94.9091 22.08 95.0691 22.08H96.8291C96.9491 22.08 97.0491 22.1133 97.1291 22.18C97.2224 22.2467 97.2691 22.34 97.2691 22.46C97.2691 22.78 97.0757 23.16 96.6891 23.6C96.3157 24.0267 95.7757 24.4 95.0691 24.72C94.3624 25.04 93.5424 25.2 92.6091 25.2ZM94.7891 18.88V18.84C94.7891 18.0533 94.5891 17.4267 94.1891 16.96C93.8024 16.48 93.2691 16.24 92.5891 16.24C91.9091 16.24 91.3757 16.48 90.9891 16.96C90.6024 17.4267 90.4091 18.0533 90.4091 18.84V18.88H94.7891ZM104.292 25.2C102.718 25.2 101.505 24.8 100.652 24C99.7982 23.2 99.3382 22.0933 99.2716 20.68L99.2516 19.8L99.2716 18.92C99.3382 17.52 99.8049 16.42 100.672 15.62C101.538 14.8067 102.745 14.4 104.292 14.4C105.825 14.4 107.025 14.8067 107.892 15.62C108.758 16.42 109.225 17.52 109.292 18.92C109.305 19.08 109.312 19.3733 109.312 19.8C109.312 20.2267 109.305 20.52 109.292 20.68C109.225 22.0933 108.765 23.2 107.912 24C107.058 24.8 105.852 25.2 104.292 25.2ZM104.292 23.18C104.998 23.18 105.538 22.96 105.912 22.52C106.298 22.08 106.505 21.4333 106.532 20.58C106.545 20.4467 106.552 20.1867 106.552 19.8C106.552 19.4133 106.545 19.1533 106.532 19.02C106.505 18.1667 106.298 17.52 105.912 17.08C105.525 16.6267 104.985 16.4 104.292 16.4C103.585 16.4 103.038 16.6267 102.652 17.08C102.265 17.52 102.058 18.1667 102.032 19.02L102.012 19.8L102.032 20.58C102.058 21.4333 102.265 22.08 102.652 22.52C103.038 22.96 103.585 23.18 104.292 23.18ZM116.027 25.2C114.56 25.2 113.387 24.7933 112.507 23.98C111.64 23.1667 111.18 22.04 111.127 20.6L111.107 19.8L111.127 19C111.18 17.56 111.64 16.4333 112.507 15.62C113.387 14.8067 114.56 14.4 116.027 14.4C117.08 14.4 117.967 14.5867 118.687 14.96C119.42 15.3333 119.96 15.7933 120.307 16.34C120.667 16.8733 120.86 17.3867 120.887 17.88C120.9 18.0133 120.854 18.1267 120.747 18.22C120.654 18.3133 120.54 18.36 120.407 18.36H118.627C118.48 18.36 118.374 18.3333 118.307 18.28C118.24 18.2133 118.174 18.1 118.107 17.94C117.907 17.4333 117.64 17.0667 117.307 16.84C116.987 16.6133 116.574 16.5 116.067 16.5C115.387 16.5 114.854 16.7133 114.467 17.14C114.094 17.5667 113.894 18.22 113.867 19.1L113.847 19.84L113.867 20.5C113.947 22.2333 114.68 23.1 116.067 23.1C116.587 23.1 117.007 22.9933 117.327 22.78C117.647 22.5533 117.907 22.18 118.107 21.66C118.16 21.5133 118.22 21.4067 118.287 21.34C118.367 21.2733 118.48 21.24 118.627 21.24H120.407C120.54 21.24 120.654 21.2867 120.747 21.38C120.854 21.4733 120.9 21.5867 120.887 21.72C120.86 22.1867 120.674 22.6933 120.327 23.24C119.98 23.7733 119.447 24.2333 118.727 24.62C118.007 25.0067 117.107 25.2 116.027 25.2ZM127.472 25.2C125.979 25.2 124.792 24.7733 123.912 23.92C123.046 23.0667 122.586 21.8533 122.532 20.28L122.512 19.78C122.512 18.1133 122.946 16.8 123.812 15.84C124.692 14.88 125.906 14.4 127.452 14.4C129.039 14.4 130.259 14.88 131.112 15.84C131.979 16.8 132.412 18.08 132.412 19.68V20.1C132.412 20.2333 132.366 20.3467 132.272 20.44C132.179 20.5333 132.059 20.58 131.912 20.58H125.272V20.74C125.299 21.4867 125.499 22.1067 125.872 22.6C126.259 23.08 126.786 23.32 127.452 23.32C128.212 23.32 128.832 23.0133 129.312 22.4C129.432 22.2533 129.526 22.1667 129.592 22.14C129.659 22.1 129.772 22.08 129.932 22.08H131.692C131.812 22.08 131.912 22.1133 131.992 22.18C132.086 22.2467 132.132 22.34 132.132 22.46C132.132 22.78 131.939 23.16 131.552 23.6C131.179 24.0267 130.639 24.4 129.932 24.72C129.226 25.04 128.406 25.2 127.472 25.2ZM129.652 18.88V18.84C129.652 18.0533 129.452 17.4267 129.052 16.96C128.666 16.48 128.132 16.24 127.452 16.24C126.772 16.24 126.239 16.48 125.852 16.96C125.466 17.4267 125.272 18.0533 125.272 18.84V18.88H129.652ZM135.035 28.8C134.902 28.8 134.788 28.7533 134.695 28.66C134.602 28.58 134.555 28.4667 134.555 28.32V15.08C134.555 14.9333 134.602 14.82 134.695 14.74C134.788 14.6467 134.902 14.6 135.035 14.6H136.635C136.782 14.6 136.902 14.6467 136.995 14.74C137.088 14.8333 137.135 14.9467 137.135 15.08V15.88C137.842 14.8933 138.902 14.4 140.315 14.4C141.662 14.4 142.695 14.8267 143.415 15.68C144.135 16.52 144.522 17.6533 144.575 19.08C144.588 19.24 144.595 19.48 144.595 19.8C144.595 20.12 144.588 20.36 144.575 20.52C144.535 21.92 144.148 23.0533 143.415 23.92C142.695 24.7733 141.662 25.2 140.315 25.2C138.982 25.2 137.962 24.7267 137.255 23.78V28.32C137.255 28.4667 137.208 28.58 137.115 28.66C137.035 28.7533 136.922 28.8 136.775 28.8H135.035ZM139.555 23.04C140.982 23.04 141.742 22.16 141.835 20.4C141.848 20.2667 141.855 20.0667 141.855 19.8C141.855 19.5333 141.848 19.3333 141.835 19.2C141.742 17.44 140.982 16.56 139.555 16.56C138.795 16.56 138.228 16.8067 137.855 17.3C137.482 17.7933 137.282 18.3933 137.255 19.1C137.242 19.26 137.235 19.5133 137.235 19.86C137.235 20.2067 137.242 20.4667 137.255 20.64C137.282 21.3067 137.488 21.8733 137.875 22.34C138.262 22.8067 138.822 23.04 139.555 23.04ZM147.3 25C147.167 25 147.053 24.9533 146.96 24.86C146.867 24.7667 146.82 24.6533 146.82 24.52V15.08C146.82 14.9333 146.867 14.82 146.96 14.74C147.053 14.6467 147.167 14.6 147.3 14.6H151.74C153.127 14.6 154.167 14.8533 154.86 15.36C155.567 15.8667 155.92 16.5733 155.92 17.48C155.92 18.0133 155.82 18.44 155.62 18.76C155.42 19.0667 155.12 19.34 154.72 19.58C155.187 19.7933 155.547 20.1133 155.8 20.54C156.067 20.9667 156.2 21.4467 156.2 21.98C156.2 22.9533 155.84 23.7 155.12 24.22C154.4 24.74 153.347 25 151.96 25H147.3ZM151.7 18.84C152.233 18.84 152.653 18.7267 152.96 18.5C153.267 18.2733 153.42 17.9533 153.42 17.54C153.42 17.14 153.273 16.8533 152.98 16.68C152.687 16.5067 152.26 16.42 151.7 16.42H149.4V18.84H151.7ZM151.8 23.18C152.347 23.18 152.773 23.08 153.08 22.88C153.387 22.68 153.54 22.3733 153.54 21.96C153.54 21.52 153.393 21.2067 153.1 21.02C152.82 20.82 152.387 20.72 151.8 20.72H149.4V23.18H151.8ZM168.019 14.6C168.139 14.6 168.246 14.6467 168.339 14.74C168.433 14.82 168.479 14.92 168.479 15.04V24.52C168.479 24.6533 168.433 24.7667 168.339 24.86C168.259 24.9533 168.146 25 167.999 25H166.299C166.166 25 166.053 24.9533 165.959 24.86C165.866 24.7667 165.819 24.6533 165.819 24.52V18.14L161.079 24.68C160.933 24.8933 160.746 25 160.519 25H158.979C158.846 25 158.733 24.96 158.639 24.88C158.559 24.7867 158.519 24.6733 158.519 24.54V15.08C158.519 14.9333 158.566 14.82 158.659 14.74C158.753 14.6467 158.866 14.6 158.999 14.6H160.699C160.833 14.6 160.946 14.6467 161.039 14.74C161.133 14.8333 161.179 14.9467 161.179 15.08V21.46L165.919 14.92C166.079 14.7067 166.266 14.6 166.479 14.6H168.019ZM175.5 25.2C174.033 25.2 172.86 24.7933 171.98 23.98C171.113 23.1667 170.653 22.04 170.6 20.6L170.58 19.8L170.6 19C170.653 17.56 171.113 16.4333 171.98 15.62C172.86 14.8067 174.033 14.4 175.5 14.4C176.553 14.4 177.44 14.5867 178.16 14.96C178.893 15.3333 179.433 15.7933 179.78 16.34C180.14 16.8733 180.333 17.3867 180.36 17.88C180.373 18.0133 180.326 18.1267 180.22 18.22C180.126 18.3133 180.013 18.36 179.88 18.36H178.1C177.953 18.36 177.846 18.3333 177.78 18.28C177.713 18.2133 177.646 18.1 177.58 17.94C177.38 17.4333 177.113 17.0667 176.78 16.84C176.46 16.6133 176.046 16.5 175.54 16.5C174.86 16.5 174.326 16.7133 173.94 17.14C173.566 17.5667 173.366 18.22 173.34 19.1L173.32 19.84L173.34 20.5C173.42 22.2333 174.153 23.1 175.54 23.1C176.06 23.1 176.48 22.9933 176.8 22.78C177.12 22.5533 177.38 22.18 177.58 21.66C177.633 21.5133 177.693 21.4067 177.76 21.34C177.84 21.2733 177.953 21.24 178.1 21.24H179.88C180.013 21.24 180.126 21.2867 180.22 21.38C180.326 21.4733 180.373 21.5867 180.36 21.72C180.333 22.1867 180.146 22.6933 179.8 23.24C179.453 23.7733 178.92 24.2333 178.2 24.62C177.48 25.0067 176.58 25.2 175.5 25.2Z" fill="#333333"/>
<path fill-rule="evenodd" clip-rule="evenodd" d="M36.0218 20.132L11.8079 34.8889C13.76 35.6075 15.8708 36 18.0736 36C27.3311 36 34.9629 29.0683 36.0218 20.132ZM8 32.947C3.17469 29.7151 0 24.2268 0 18C0 11.7732 3.17469 6.28493 8 3.05296V32.947ZM10.8156 1.51023C13.037 0.539024 15.4921 0 18.0736 0C27.6944 0 35.5595 7.48655 36.1158 16.9292L10.8156 1.51023Z" fill="#E5261E"/>
</svg>
